<svg xmlns="http://www.w3.org/2000/svg" viewBox="0 0 720 380" width="720" height="380" font-family="ui-monospace, Consolas, monospace" font-size="12">
  <title>Additional seconds per 500m from the long-duration CP decay, by piece duration and tier (7:00 2K)</title>

  <!-- Grid -->
  <line x1="70" y1="330.0" x2="550" y2="330.0" stroke="#88888833" />
  <line x1="70" y1="185.0" x2="550" y2="185.0" stroke="#88888833" />
  <line x1="70" y1="40.0" x2="550" y2="40.0" stroke="#88888833" />
  <line x1="70.0" y1="40" x2="70.0" y2="330" stroke="#88888833" />
  <line x1="185.1" y1="40" x2="185.1" y2="330" stroke="#88888833" />
  <line x1="300.2" y1="40" x2="300.2" y2="330" stroke="#88888833" />
  <line x1="367.6" y1="40" x2="367.6" y2="330" stroke="#88888833" />
  <line x1="482.7" y1="40" x2="482.7" y2="330" stroke="#88888833" />
  <line x1="550.0" y1="40" x2="550.0" y2="330" stroke="#88888833" />

  <!-- Decay-onset marker at 20 min -->
  <line x1="300.2" y1="40" x2="300.2" y2="330" stroke="#999" stroke-dasharray="4 3" stroke-width="1" />
  <text x="306.2" y="52.0" fill="#555" font-size="11">decay onset (20 min)</text>

  <!-- Axes -->
  <line x1="70" y1="330" x2="550" y2="330" stroke="#888" />
  <line x1="70" y1="40" x2="70" y2="330" stroke="#888" />

  <!-- X tick labels -->
  <text x="70.0" y="348.0" fill="#555" text-anchor="middle">5 min</text>
  <text x="185.1" y="348.0" fill="#555" text-anchor="middle">10 min</text>
  <text x="300.2" y="348.0" fill="#555" text-anchor="middle">20 min</text>
  <text x="367.6" y="348.0" fill="#555" text-anchor="middle">30 min</text>
  <text x="482.7" y="348.0" fill="#555" text-anchor="middle">60 min</text>
  <text x="550.0" y="348.0" fill="#555" text-anchor="middle">90 min</text>

  <!-- Y tick labels -->
  <text x="62" y="334.0" fill="#555" text-anchor="end">0.0s</text>
  <text x="62" y="189.0" fill="#555" text-anchor="end">0.5s</text>
  <text x="62" y="44.0" fill="#555" text-anchor="end">1.0s</text>

  <!-- Axis titles -->
  <text x="310.0" y="370.0" fill="#555" text-anchor="middle" font-size="13">piece duration</text>
  <text x="20" y="185.0" fill="#555" text-anchor="middle" font-size="13" transform="rotate(-90 20 185.0)">Δ split /500m</text>

  <!-- Curves -->
  <path d="M70.0,330.0 L76.1,330.0 L82.2,330.0 L88.2,330.0 L94.3,330.0 L100.4,330.0 L106.5,330.0 L112.5,330.0 L118.6,330.0 L124.7,330.0 L130.8,330.0 L136.8,330.0 L142.9,330.0 L149.0,330.0 L155.1,330.0 L161.1,330.0 L167.2,330.0 L173.3,330.0 L179.4,330.0 L185.4,330.0 L191.5,330.0 L197.6,330.0 L203.7,330.0 L209.7,330.0 L215.8,330.0 L221.9,330.0 L228.0,330.0 L234.1,330.0 L240.1,330.0 L246.2,330.0 L252.3,330.0 L258.4,330.0 L264.4,330.0 L270.5,330.0 L276.6,330.0 L282.7,330.0 L288.7,330.0 L294.8,330.0 L300.9,330.0 L307.0,330.0 L313.0,329.6 L319.1,328.9 L325.2,328.1 L331.3,327.4 L337.3,326.3 L343.4,324.8 L349.5,323.3 L355.6,321.1 L361.6,319.3 L367.7,317.1 L373.8,314.9 L379.9,312.4 L385.9,310.2 L392.0,307.3 L398.1,304.4 L404.2,301.2 L410.3,297.9 L416.3,294.7 L422.4,291.1 L428.5,287.6 L434.6,283.6 L440.6,279.7 L446.7,275.8 L452.8,271.9 L458.9,267.7 L464.9,263.1 L471.0,258.5 L477.1,254.3 L483.2,249.7 L489.2,244.8 L495.3,239.8 L501.4,234.9 L507.5,230.0 L513.5,225.1 L519.6,219.9 L525.7,214.3 L531.8,209.0 L537.8,203.8 L543.9,198.2 L550.0,192.6" fill="none" stroke="#0ea5e9" stroke-width="2" />
  <path d="M70.0,330.0 L76.1,330.0 L82.2,330.0 L88.2,330.0 L94.3,330.0 L100.4,330.0 L106.5,330.0 L112.5,330.0 L118.6,330.0 L124.7,330.0 L130.8,330.0 L136.8,330.0 L142.9,330.0 L149.0,330.0 L155.1,330.0 L161.1,330.0 L167.2,330.0 L173.3,330.0 L179.4,330.0 L185.4,330.0 L191.5,330.0 L197.6,330.0 L203.7,330.0 L209.7,330.0 L215.8,330.0 L221.9,330.0 L228.0,330.0 L234.1,330.0 L240.1,330.0 L246.2,330.0 L252.3,330.0 L258.4,330.0 L264.4,330.0 L270.5,330.0 L276.6,330.0 L282.7,330.0 L288.7,330.0 L294.8,330.0 L300.9,330.0 L307.0,329.6 L313.0,329.6 L319.1,328.8 L325.2,328.0 L331.3,326.5 L337.3,325.3 L343.4,323.8 L349.5,321.5 L355.6,319.9 L361.6,317.3 L367.7,315.0 L373.8,312.3 L379.9,308.9 L385.9,306.3 L392.0,302.9 L398.1,298.7 L404.2,295.4 L410.3,291.7 L416.3,287.2 L422.4,283.5 L428.5,278.7 L434.6,274.2 L440.6,269.8 L446.7,264.7 L452.8,259.5 L458.9,254.4 L464.9,249.3 L471.0,243.8 L477.1,238.3 L483.2,232.5 L489.2,226.7 L495.3,220.5 L501.4,214.8 L507.5,208.6 L513.5,202.5 L519.6,196.0 L525.7,189.5 L531.8,182.6 L537.8,176.2 L543.9,169.7 L550.0,162.9" fill="none" stroke="#2563eb" stroke-width="2" />
  <path d="M70.0,330.0 L76.1,330.0 L82.2,330.0 L88.2,330.0 L94.3,330.0 L100.4,330.0 L106.5,330.0 L112.5,330.0 L118.6,330.0 L124.7,330.0 L130.8,330.0 L136.8,330.0 L142.9,330.0 L149.0,330.0 L155.1,330.0 L161.1,330.0 L167.2,330.0 L173.3,330.0 L179.4,330.0 L185.4,330.0 L191.5,330.0 L197.6,330.0 L203.7,330.0 L209.7,330.0 L215.8,330.0 L221.9,330.0 L228.0,330.0 L234.1,330.0 L240.1,330.0 L246.2,330.0 L252.3,330.0 L258.4,330.0 L264.4,330.0 L270.5,330.0 L276.6,330.0 L282.7,330.0 L288.7,330.0 L294.8,330.0 L300.9,330.0 L307.0,329.6 L313.0,329.1 L319.1,328.7 L325.2,326.9 L331.3,325.6 L337.3,324.3 L343.4,322.1 L349.5,319.9 L355.6,317.3 L361.6,313.9 L367.7,310.9 L373.8,307.5 L379.9,303.7 L385.9,299.9 L392.0,295.7 L398.1,291.1 L404.2,286.1 L410.3,281.1 L416.3,275.7 L422.4,270.4 L428.5,264.7 L434.6,259.0 L440.6,252.5 L446.7,246.9 L452.8,240.1 L458.9,233.2 L464.9,226.5 L471.0,219.3 L477.1,211.8 L483.2,204.7 L489.2,197.3 L495.3,189.0 L501.4,181.2 L507.5,173.0 L513.5,165.3 L519.6,156.8 L525.7,148.3 L531.8,139.4 L537.8,130.6 L543.9,121.8 L550.0,113.0" fill="none" stroke="#dc2626" stroke-width="2" />

  <!-- Legend -->
  <g transform="translate(570, 46)" font-size="12">
    <text fill="#555" font-size="11" y="-10">tier (k = 0.16·(1−r))</text>
    
    <line x1="0" y1="0" x2="22" y2="0" stroke="#0ea5e9" stroke-width="2" />
    <text x="28" y="4" fill="#555">World-class</text>
    <text x="28" y="17" fill="#555" font-size="10">k = 0.040</text>
    <line x1="0" y1="20" x2="22" y2="20" stroke="#2563eb" stroke-width="2" />
    <text x="28" y="24" fill="#555">Competitive</text>
    <text x="28" y="37" fill="#555" font-size="10">k = 0.048</text>
    <line x1="0" y1="40" x2="22" y2="40" stroke="#dc2626" stroke-width="2" />
    <text x="28" y="44" fill="#555">Recreational</text>
    <text x="28" y="57" fill="#555" font-size="10">k = 0.061</text>
  </g>

  <!-- Caption -->
  <text x="70" y="22.0" fill="#555" font-size="12">Extra seconds per 500m added by the long-duration decay — 7:00 2K, no rest phases</text>
</svg>
